<svg width="201" height="81" viewBox="0 0 201 81" fill="none" xmlns="http://www.w3.org/2000/svg">
<g filter="url(#filter0_d_461_24164)">
<path d="M41.6892 56.355L67.7603 45.2275L69.4808 42.8012L70.4072 39.9566L71.4659 36.108L69.4808 31.59L67.7603 28.5781L41.6892 39.9566V56.355Z" fill="url(#paint0_linear_461_24164)"/>
</g>
<g filter="url(#filter1_d_461_24164)">
<path d="M50.4062 16.4209L24.274 27.5484L22.5496 29.9747L21.621 32.8193L20.5598 36.6679L22.5496 41.1858L24.274 44.1978L50.4062 32.8193V16.4209Z" fill="url(#paint1_linear_461_24164)"/>
</g>
<path d="M67.419 27.9829L41.8785 10.708L41.6892 27.9829L67.419 40.4705C70.0512 41.3473 68.5158 44.0906 67.419 45.3527C77.5267 39.9591 71.6306 31.5255 67.419 27.9829Z" fill="#5658DD"/>
<path d="M24.6066 44.7252L50.1471 62.0001L50.3365 44.7252L24.6066 32.2376C21.9744 31.3608 23.5099 28.6175 24.6066 27.3555C14.4989 32.7491 20.3951 41.1826 24.6066 44.7252Z" fill="#5658DD"/>
<path d="M84.282 47V22.325H94.572C97.232 22.325 99.2736 22.885 100.697 24.005C102.144 25.125 102.867 26.7 102.867 28.73C102.867 30.2467 102.412 31.5183 101.502 32.545C100.592 33.5717 99.3436 34.26 97.757 34.61V34.085C99.577 34.3183 100.989 34.96 101.992 36.01C102.995 37.06 103.497 38.4483 103.497 40.175C103.497 42.3683 102.75 44.06 101.257 45.25C99.787 46.4167 97.7103 47 95.027 47H84.282ZM87.817 44.165H94.642C96.2986 44.165 97.5936 43.85 98.527 43.22C99.4836 42.59 99.962 41.5283 99.962 40.035C99.962 38.5417 99.4836 37.48 98.527 36.85C97.5936 36.22 96.2986 35.905 94.642 35.905H87.817V44.165ZM87.817 33.105H94.012C95.7853 33.105 97.1153 32.7667 98.002 32.09C98.8886 31.4133 99.332 30.4217 99.332 29.115C99.332 27.8083 98.8886 26.8167 98.002 26.14C97.1153 25.4633 95.7853 25.125 94.012 25.125H87.817V33.105ZM115.592 47.315C113.469 47.315 111.87 46.7433 110.797 45.6C109.747 44.4333 109.222 42.6483 109.222 40.245V29.36H112.757V40.175C112.757 41.645 113.06 42.73 113.667 43.43C114.274 44.13 115.195 44.48 116.432 44.48C117.832 44.48 118.964 44.0133 119.827 43.08C120.69 42.1467 121.122 40.91 121.122 39.37V29.36H124.657V47H121.227V43.22H121.682C121.192 44.5267 120.41 45.5417 119.337 46.265C118.264 46.965 117.015 47.315 115.592 47.315ZM131.235 47V21.24H134.77V47H131.235ZM141.351 47V21.24H144.886V37.06H144.956L152.656 29.36H157.031L147.721 38.635L147.756 37.06L157.801 47H153.321L144.956 38.915H144.886V47H141.351ZM161.378 54.56V33.595C161.378 32.9183 161.343 32.23 161.273 31.53C161.227 30.8067 161.168 30.0833 161.098 29.36H164.528L164.878 33.35H164.493C164.867 32.02 165.613 30.97 166.733 30.2C167.877 29.43 169.23 29.045 170.793 29.045C172.357 29.045 173.722 29.4183 174.888 30.165C176.055 30.8883 176.953 31.9267 177.583 33.28C178.237 34.6333 178.563 36.2667 178.563 38.18C178.563 40.07 178.237 41.7033 177.583 43.08C176.953 44.4567 176.055 45.5067 174.888 46.23C173.722 46.9533 172.357 47.315 170.793 47.315C169.253 47.315 167.912 46.9417 166.768 46.195C165.648 45.425 164.902 44.3867 164.528 43.08H164.913V54.56H161.378ZM169.918 44.55C171.458 44.55 172.683 44.0133 173.593 42.94C174.527 41.8667 174.993 40.28 174.993 38.18C174.993 36.08 174.527 34.505 173.593 33.455C172.683 32.3817 171.458 31.845 169.918 31.845C168.378 31.845 167.142 32.3817 166.208 33.455C165.298 34.505 164.843 36.08 164.843 38.18C164.843 40.28 165.298 41.8667 166.208 42.94C167.142 44.0133 168.378 44.55 169.918 44.55ZM192.262 47.315C189.415 47.315 187.175 46.51 185.542 44.9C183.908 43.29 183.092 41.0617 183.092 38.215C183.092 36.3717 183.442 34.7617 184.142 33.385C184.865 32.0083 185.857 30.9467 187.117 30.2C188.4 29.43 189.882 29.045 191.562 29.045C193.218 29.045 194.607 29.395 195.727 30.095C196.847 30.795 197.698 31.7867 198.282 33.07C198.865 34.33 199.157 35.8233 199.157 37.55V38.67H185.857V36.64H196.742L196.147 37.095C196.147 35.345 195.75 33.9917 194.957 33.035C194.187 32.055 193.067 31.565 191.597 31.565C189.963 31.565 188.703 32.1367 187.817 33.28C186.93 34.4 186.487 35.9517 186.487 37.935V38.285C186.487 40.3617 186.988 41.925 187.992 42.975C189.018 44.025 190.465 44.55 192.332 44.55C193.358 44.55 194.315 44.41 195.202 44.13C196.112 43.8267 196.975 43.3367 197.792 42.66L198.947 45.075C198.13 45.7983 197.138 46.3583 195.972 46.755C194.805 47.1283 193.568 47.315 192.262 47.315Z" fill="black"/>
<defs>
<filter id="filter0_d_461_24164" x="21.6892" y="12.5781" width="69.7766" height="67.7773" filterUnits="userSpaceOnUse" color-interpolation-filters="sRGB">
<feFlood flood-opacity="0" result="BackgroundImageFix"/>
<feColorMatrix in="SourceAlpha" type="matrix" values="0 0 0 0 0 0 0 0 0 0 0 0 0 0 0 0 0 0 127 0" result="hardAlpha"/>
<feOffset dy="4"/>
<feGaussianBlur stdDeviation="10"/>
<feComposite in2="hardAlpha" operator="out"/>
<feColorMatrix type="matrix" values="0 0 0 0 0 0 0 0 0 0 0 0 0 0 0 0 0 0 0.25 0"/>
<feBlend mode="normal" in2="BackgroundImageFix" result="effect1_dropShadow_461_24164"/>
<feBlend mode="normal" in="SourceGraphic" in2="effect1_dropShadow_461_24164" result="shape"/>
</filter>
<filter id="filter1_d_461_24164" x="0.559814" y="0.420898" width="69.8464" height="67.7773" filterUnits="userSpaceOnUse" color-interpolation-filters="sRGB">
<feFlood flood-opacity="0" result="BackgroundImageFix"/>
<feColorMatrix in="SourceAlpha" type="matrix" values="0 0 0 0 0 0 0 0 0 0 0 0 0 0 0 0 0 0 127 0" result="hardAlpha"/>
<feOffset dy="4"/>
<feGaussianBlur stdDeviation="10"/>
<feComposite in2="hardAlpha" operator="out"/>
<feColorMatrix type="matrix" values="0 0 0 0 0 0 0 0 0 0 0 0 0 0 0 0 0 0 0.25 0"/>
<feBlend mode="normal" in2="BackgroundImageFix" result="effect1_dropShadow_461_24164"/>
<feBlend mode="normal" in="SourceGraphic" in2="effect1_dropShadow_461_24164" result="shape"/>
</filter>
<linearGradient id="paint0_linear_461_24164" x1="41.6892" y1="53.4772" x2="66.6848" y2="39.8111" gradientUnits="userSpaceOnUse">
<stop/>
<stop offset="0.494792" stop-color="#3E3F83"/>
<stop offset="1" stop-color="#5658DD"/>
</linearGradient>
<linearGradient id="paint1_linear_461_24164" x1="50.4062" y1="19.2987" x2="25.3791" y2="33.014" gradientUnits="userSpaceOnUse">
<stop/>
<stop offset="0.494792" stop-color="#454695"/>
<stop offset="1" stop-color="#5658DD"/>
</linearGradient>
</defs>
</svg>
